<svg xmlns="http://www.w3.org/2000/svg" width="31.2" height="27.71" viewBox="0 0 31.2 27.71">
  <path id="Trazado_4579" data-name="Trazado 4579" d="M553.571,386.506a4.085,4.085,0,0,1,0-1.43A2.7,2.7,0,0,1,555,384.2a4.361,4.361,0,0,1,2.173.386,3.481,3.481,0,0,1,.915,1.072c.343.6.443,2.045.829,2.6a1.516,1.516,0,0,0,.729.543c.615.086,1.716-.729,2.331-.872a12.247,12.247,0,0,1,3.389.143,52.521,52.521,0,0,1,5.333,1.258c1.015.3,2.96,1.229,3.975,1.43s2.717,0,3.589.3a5.6,5.6,0,0,1,.915.486l-2.559.429,1.43.729s-2.045.286-2.717.429a24.557,24.557,0,0,0-2.473.729,12.055,12.055,0,0,0-1.258.686,32.066,32.066,0,0,1-2.86,1.787,16.025,16.025,0,0,1-1.6.343l1.544,4.018v.729l-1.058,3.146.1,7.321H566.6v-5.619l-1.773,1.945,1.2,3.589h-.886a17.611,17.611,0,0,1-1.215-3.775c0-.986,2.731-4.289,2.731-4.289l-.286-7.021s-1.43-.186-3.489-.629a11.436,11.436,0,0,1-3.074-1.23,28.608,28.608,0,0,1-2.2-3.231,8.981,8.981,0,0,1-.929-1.3c-.186-.758-.415-1.43-.672-2.23a2.7,2.7,0,0,0-.93-.729,3.747,3.747,0,0,0-1.544,0,15.454,15.454,0,0,0-2.76,1.573,16.621,16.621,0,0,1-2.774.929C547.637,389.967,553.571,386.506,553.571,386.506Z" transform="translate(-547.979 -384.19)" fill="#141414"/>
</svg>
