<?xml version="1.0" encoding="UTF-8" standalone="no"?>
<svg
   xmlns:dc="http://purl.org/dc/elements/1.1/"
   xmlns:cc="http://creativecommons.org/ns#"
   xmlns:rdf="http://www.w3.org/1999/02/22-rdf-syntax-ns#"
   xmlns:svg="http://www.w3.org/2000/svg"
   xmlns="http://www.w3.org/2000/svg"
   version="1.1"
   id="Capa_1"
   x="0px"
   y="0px"
   viewBox="0 0 490.264 490.264"
   style="enable-background:new 0 0 490.264 490.264;"
   xml:space="preserve"><metadata
   id="metadata99"><rdf:RDF><cc:Work
       rdf:about=""><dc:format>image/svg+xml</dc:format><dc:type
         rdf:resource="http://purl.org/dc/dcmitype/StillImage" /><dc:title></dc:title></cc:Work></rdf:RDF></metadata><defs
   id="defs97" />
<g
   id="g62">
	<polygon
   points="402.88,167.111 340.137,167.111 489.224,10.904 478.06,0.252 329.537,155.868 329.537,93.769 314.109,93.769    314.109,182.539 402.88,182.539  "
   id="polygon54" />
	<polygon
   points="92.439,166.268 92.439,181.695 181.21,181.695 181.21,92.925 165.782,92.925 165.782,154.878 11.029,0.124    0.121,11.032 155.356,166.268  "
   id="polygon56" />
	<polygon
   points="94.443,315.363 156.964,315.363 0,479.473 11.149,490.14 167.786,326.372 167.786,388.706 183.213,388.706    183.213,299.936 94.443,299.936  "
   id="polygon58" />
	<polygon
   points="490.264,479.559 338.474,315.944 402.925,315.944 402.925,300.516 314.154,300.516 314.154,389.286    329.582,389.286 329.582,329.049 478.949,490.053  "
   id="polygon60" />
</g>
<g
   id="g64">
</g>
<g
   id="g66">
</g>
<g
   id="g68">
</g>
<g
   id="g70">
</g>
<g
   id="g72">
</g>
<g
   id="g74">
</g>
<g
   id="g76">
</g>
<g
   id="g78">
</g>
<g
   id="g80">
</g>
<g
   id="g82">
</g>
<g
   id="g84">
</g>
<g
   id="g86">
</g>
<g
   id="g88">
</g>
<g
   id="g90">
</g>
<g
   id="g92">
</g>
</svg>
